<?xml version="1.0" encoding="UTF-8"?>
<svg data-bbox="1.968 2.35 60.056 59.3" viewBox="0 0 64 64" xmlns="http://www.w3.org/2000/svg" data-type="shape">
    <g>
        <path d="M7 46a6.92 6.92 0 0 0-4.32 6.4v4.22a5 5 0 0 0 5 5h14a3.1 3.1 0 0 0 3.1-3.1 13 13 0 0 0-10-12.67A8.77 8.77 0 1 0 7 46m15.8 12.52a1.1 1.1 0 0 1-1.1 1.1h-3.47l-3.6-7.13a1 1 0 0 0-1.79.9L16 59.65H7.72a3 3 0 0 1-3-3v-4.22a4.93 4.93 0 0 1 4.92-4.92h2.16a11.06 11.06 0 0 1 11.04 11.04ZM10.77 31.33A6.77 6.77 0 1 1 4 38.1a6.78 6.78 0 0 1 6.77-6.77m42.46-2a8.77 8.77 0 0 0-4 16.55 13 13 0 0 0-10 12.67 3.1 3.1 0 0 0 3.1 3.1h14a5 5 0 0 0 5-5v-4.22A6.92 6.92 0 0 0 57 46a8.77 8.77 0 0 0-3.73-16.7Zm6.05 23.1v4.22a3 3 0 0 1-3 3H48l3.15-6.23a1 1 0 0 0-1.79-.9l-3.6 7.13h-3.5a1.1 1.1 0 0 1-1.1-1.1 11.06 11.06 0 0 1 11-11h2.16a4.93 4.93 0 0 1 4.96 4.88m-6.05-7.56A6.77 6.77 0 1 1 60 38.1a6.78 6.78 0 0 1-6.77 6.77M18.29 14.08a1 1 0 0 1-1 1h-.17a1 1 0 0 1 0-2h.17a1 1 0 0 1 1 1m6 0a1 1 0 0 1-1 1h-.16a1 1 0 0 1 0-2h.16a1 1 0 0 1 1.02 1Zm6 0a1 1 0 0 1-1 1h-.16a1 1 0 0 1 0-2h.16a1 1 0 0 1 1.05 1Zm23.27-.59c0-6.14-6-11.14-13.46-11.14a15.2 15.2 0 0 0-8.4 2.49 15.25 15.25 0 0 0-8.47-2.48c-7.42 0-13.46 5-13.46 11.13a9.53 9.53 0 0 0 1.3 4.79 1.94 1.94 0 0 1 .19 1.52l-1.14 3.61a2 2 0 0 0 .57 2.14 2.06 2.06 0 0 0 1.39.55 2.2 2.2 0 0 0 .79-.15l4.67-1.89a1.7 1.7 0 0 1 1.15-.06 16 16 0 0 0 4.54.65 15.16 15.16 0 0 0 8.47-2.5 15.1 15.1 0 0 0 8.45 2.49 16.3 16.3 0 0 0 4.53-.64 1.8 1.8 0 0 1 1.16.07l4.65 1.89a2.1 2.1 0 0 0 .81.16 2.07 2.07 0 0 0 2-2.7l-1.14-3.6a1.9 1.9 0 0 1 .19-1.53 9.5 9.5 0 0 0 1.26-4.8Zm-30.33 9.14a14.2 14.2 0 0 1-4-.57 3.82 3.82 0 0 0-2.47.14l-4.67 1.9.37.92L12 24l1.15-3.61a3.9 3.9 0 0 0-.37-3.12 7.6 7.6 0 0 1-1-3.79c0-5 5.14-9.13 11.46-9.13S34.7 8.46 34.7 13.49s-5.15 9.14-11.47 9.14m27-2.23 1.12 3.6-.1.08-4.67-1.88a3.77 3.77 0 0 0-2.45-.14 14.3 14.3 0 0 1-4 .56 13.3 13.3 0 0 1-6.8-1.81 10 10 0 0 0 3.35-7.32 10.07 10.07 0 0 0-3.36-7.33 13.3 13.3 0 0 1 6.81-1.81c6.32 0 11.46 4.1 11.46 9.14a7.5 7.5 0 0 1-1 3.79 3.93 3.93 0 0 0-.38 3.12Zm-3-6.32a1 1 0 0 1-1 1h-.16a1 1 0 0 1 0-2h.16a1 1 0 0 1 1.02 1Zm-6 0a1 1 0 0 1-1 1h-.16a1 1 0 0 1 0-2h.16a1 1 0 0 1 1 1"/>
    </g>
</svg>
