<?xml version="1.0" encoding="UTF-8"?>
<svg data-bbox="4 9.712 56 44.541" viewBox="0 0 64 64" xmlns="http://www.w3.org/2000/svg" data-type="shape">
    <g>
        <path d="M40.871 29.809a1.8 1.8 0 0 1-.17-.777v-5.766a12.06 12.06 0 0 0-6.198-10.61C12.686 1.158-5.689 25.802 9.675 44.147c1.094 1.135.658 3.75.738 5.163a1 1 0 0 0 .89.993l20.563 2.249a1.006 1.006 0 0 0 1.108-.994v-3.591a.72.72 0 0 1 .721-.722h4.068a2.94 2.94 0 0 0 2.939-2.939v-1.939a1 1 0 0 0-.652-.936l-.698-.26c.636-.1 1.355-.324 1.35-1.106l-.04-3.128h1.621a1.862 1.862 0 0 0 1.583-2.814Zm-.21 5.129a1.963 1.963 0 0 0-1.958 1.965v2.367l-3.051.704a1.005 1.005 0 0 0-.123 1.91l3.174 1.177v1.244a.953.953 0 0 1-.94.941h-4.068a2.723 2.723 0 0 0-2.72 2.72v2.477l-18.564-2.03c.035-1.85.144-4.043-1.184-5.523C-2.805 26.162 13.624 3.987 33.54 14.408a10.06 10.06 0 0 1 5.163 8.858v5.766a3.64 3.64 0 0 0 .488 1.86l2.81 4.046Z"/>
        <path d="M47.934 36.908a1 1 0 0 0-1.418 1.408 5.674 5.674 0 0 1 0 7.979.999.999 0 1 0 1.418 1.408 7.68 7.68 0 0 0 0-10.795"/>
        <path d="M51.483 33.362a1 1 0 0 0-1.413 1.413 10.716 10.716 0 0 1 0 15.061 1.006 1.006 0 0 0 .707 1.706 1 1 0 0 0 .706-.293 12.723 12.723 0 0 0 0-17.887"/>
        <path d="M55.2 30.617a1 1 0 0 0-1.415 1.41 14.62 14.62 0 0 1 0 20.556 1 1 0 0 0 1.415 1.41 16.63 16.63 0 0 0 0-23.376"/>
    </g>
</svg>
