<?xml version="1.0" encoding="UTF-8"?>
<svg data-bbox="2 2 60 60" viewBox="0 0 64 64" xmlns="http://www.w3.org/2000/svg" data-type="color">
    <g>
        <path d="M32 24a11 11 0 1 0-11-11 11.013 11.013 0 0 0 11 11m0-20a9 9 0 1 1-9 9 9.01 9.01 0 0 1 9-9" fill="#231f20" data-color="1"/>
        <path d="M61 41h-3V25a1 1 0 0 0-1-1h-.9a28.8 28.8 0 0 0-14.88 4.121A17 17 0 0 0 33 26h-2a17 17 0 0 0-8.22 2.121A28.8 28.8 0 0 0 7.9 24H7a1 1 0 0 0-1 1v16H3a1 1 0 0 0-1 1v8a1 1 0 0 0 1 1h3v4a1 1 0 0 0 1 1h.82a35.1 35.1 0 0 1 16.76 4.273l2.941 1.6c.019.01.04.014.06.023l.074.029A1 1 0 0 0 28 62h8a1 1 0 0 0 .345-.07l.074-.029c.02-.009.041-.013.06-.023l2.941-1.6A35.1 35.1 0 0 1 56.18 56H57a1 1 0 0 0 1-1v-4h3a1 1 0 0 0 1-1v-8a1 1 0 0 0-1-1M31 28h2a15 15 0 0 1 6.292 1.383c-.08.057-.164.106-.244.164L35.675 32h-7.35l-3.373-2.453c-.08-.058-.164-.107-.244-.164A15 15 0 0 1 31 28M4 43h5a3 3 0 0 1 2.118.872 3 3 0 0 1 .365.449c.042.062.072.131.109.2a3 3 0 0 1 .161.3c.034.078.055.16.081.24a3 3 0 0 1 .092.3c.018.081.024.165.035.248a3 3 0 0 1 .032.316 3 3 0 0 1-.02.347q-.007.098-.02.193a2.93 2.93 0 0 1-.774 1.5A3.34 3.34 0 0 1 8.774 49H4Zm4 11v-3h1a5 5 0 0 0 4.916-4.173c.025-.137.03-.277.042-.417S14 46.141 14 46c0-.041-.011-.08-.012-.122S14 45.8 14 45.761c-.007-.141-.041-.277-.059-.415s-.029-.275-.058-.409a5 5 0 0 0-.152-.5c-.044-.134-.079-.271-.135-.4a5 5 0 0 0-.266-.5c-.063-.11-.113-.226-.184-.332a5 5 0 0 0-.609-.747A5 5 0 0 0 9 41H8V26a26.8 26.8 0 0 1 14.146 4.073l.045.03a27 27 0 0 1 1.584 1.061L27 33.509v25.806l-1.462-.8A37.1 37.1 0 0 0 8 54m21-20h6v26h-6Zm27 20a37.1 37.1 0 0 0-17.538 4.518l-1.462.8V33.509l3.225-2.345a28 28 0 0 1 1.5-1.006l.044-.029A26.8 26.8 0 0 1 56 26v15h-1a5 5 0 0 0-3.532 1.458l-.008.008c-.016.016-.027.036-.043.052a5 5 0 0 0-.559.688c-.074.11-.126.23-.191.345a5 5 0 0 0-.257.483c-.056.131-.092.27-.137.406a5 5 0 0 0-.149.495c-.029.134-.04.272-.058.409s-.052.274-.059.415c0 .039.008.078.007.117S50 45.959 50 46c0 .141.03.273.042.41s.017.28.042.417A5 5 0 0 0 55 51h1Zm4-5h-4.774a3.34 3.34 0 0 1-2.405-1.035 2.93 2.93 0 0 1-.774-1.5c-.01-.063-.014-.128-.02-.193a3 3 0 0 1-.02-.347 3 3 0 0 1 .032-.318c.011-.082.017-.165.034-.245.022-.1.057-.194.088-.29s.05-.172.086-.254.086-.164.13-.246.086-.172.14-.253a3 3 0 0 1 .266-.328c.033-.036.058-.077.092-.111a3 3 0 0 1 .279-.228c.062-.048.119-.106.184-.149a3 3 0 0 1 .326-.174c.065-.032.125-.074.192-.1a3 3 0 0 1 .385-.117c.058-.015.113-.04.173-.052A3 3 0 0 1 55 43h5Z" fill="#231f20" data-color="1"/>
    </g>
</svg>
