<?xml version="1.0" encoding="UTF-8"?>
<svg data-bbox="24.945 20 120.041 128" viewBox="0 0 168 168" xmlns="http://www.w3.org/2000/svg" data-type="shape">
    <g>
        <path d="M140.6 85.9c-1.4-1.6-2.6-3.3-3.7-5.1-.3-.5-.5-.9-.8-1.4-1.8-3.1-3.7-6.3-3.2-8.9 1.5-7.1.6-14.4-2.5-20.9-10.3-21.9-30.5-27.4-38.8-28.7-3.6-.6-7.3-.9-11-.9h-.1c-6.8 0-13.6.9-20.2 2.9-1.3.4-2.7.9-4 1.4-17 6.8-29.8 23.9-31.2 41.4-.8 9 1.5 18 6.6 25.5.8 1.2 1.6 2.4 2.3 3.6 1 1.6 2 3.2 3.2 4.8 8.7 11.8 10.5 29.3 4.7 45.6-.4 1 .2 2.2 1.2 2.6s2.2-.2 2.6-1.2c6.3-17.8 4.3-36.3-5.3-49.3-1.1-1.6-2.1-3-3-4.6-.8-1.2-1.5-2.5-2.4-3.8-4.5-6.7-6.6-14.8-5.9-22.9 1.3-16.1 13.1-31.7 28.7-38 1.2-.5 2.5-.9 3.7-1.3 6.2-1.9 12.6-2.8 19-2.7 3.5 0 6.9.3 10.3.8 7.6 1.2 26.3 6.3 35.8 26.5 2.8 5.7 3.6 12.2 2.2 18.5-.8 4.1 1.6 8.1 3.7 11.7.3.5.5.9.8 1.3 1.2 2 2.5 3.9 4 5.6 1.4 1.5 2.5 3.2 3.5 5.1q.15.3 0 .6c-.4.4-.9.6-1.5.7-.2.1-.4.1-.6.2l-.5.2c-1.4.4-2.6 1-3.7 2-2.8 2.6-.6 5.5.3 6.7.3.3.5.7.7 1-.2.2-.5.3-.9.6-.1 0-.1.1-.2.1-20.3-8.2-43.5-9.8-55.2-7.1-3.1.5-5.9 2-8.1 4.1-4.8.5-8 3.7-8.8 8.6v.5c-4.2 1.1-6.8 5.4-5.7 9.7.7 2.6 2.6 4.7 5.2 5.5v19c0 1.1.9 2 2 2s2-.9 2-2v-20.6c0-1-.8-1.9-1.8-2-2.2-.2-3.8-2.1-3.6-4.3.2-2 1.9-3.6 4-3.6h.2c1.1.1 2.1-.7 2.2-1.8 0-.3 0-.6-.1-.9s-.2-.6-.2-1c.5-3.4 2.5-5.1 5.8-5.3.6 0 1.1-.3 1.5-.7 1.6-2 3.7-2.8 6.5-3.4 10.8-2.5 32.2-.9 50.6 6.1-.3.4-.5.7-.7 1.2-.3.9-.5 1.8-.4 2.7-16.1-6.1-30.4-7.5-43.5-4.5-5 1.2-7.1 4.6-8.3 7.4-.1.2-.2.4-.2.6-.3.8 0 1.8.8 2.3 1.1.7 1.7 1.9 1.7 3.2 0 1.8-1.2 3.4-2.9 3.8-.9.2-1.5 1-1.5 1.9v19c0 1.1.9 2 2 2s2-.9 2-2v-17.4c3.9-1.9 5.5-6.7 3.6-10.6-.3-.7-.8-1.3-1.3-1.9.9-2.2 2.8-3.7 5.1-4.2 13.4-3.1 28.2-1.2 45.2 5.9h.1v.1h-.2c-1.1.2-2.6.5-3.2 1.9-.5 1.4-.5 3-.1 4.4.5 1.7.5 3.5 0 5.2-.3 1.1-1 2-2 2.6-1.3.9-2.8 1.3-4.4 1.1-14.2-1.5-28.6-10-28.7-10-.2-.1-.5-.2-.8-.3h-.7c-.1 0-.2.1-.2.1h-.1c-.1 0-.1.1-.2.1l-.1.1c-.1 0-.1.1-.2.1l-.1.1-.2.2s0 .1-.1.1c0 .1-.1.2-.1.3 0 0 0 .1-.1.1 0 .1-.1.2-.1.4-.9 7.1-1.5 19.6 4.8 23.3 1 .6 2.2.2 2.7-.7.6-1 .2-2.2-.7-2.7-2.8-1.6-3.9-7.8-3.2-16.4 5 2.6 16.3 7.9 27.7 9.1 2.5.3 5.1-.3 7.2-1.8 1.6-1.2 2.9-2.8 3.5-4.7.7-2.3.7-4.8.1-7.1-.1-.5-.2-1-.2-1.5.1 0 .2 0 .3-.1 1.2-.2 3.7-.7 3.9-3.1.1-1.6-.8-2.8-1.7-3.9-1.2-1.6-1.8-2.5-1.3-3.7.9-.9 1.8-1.6 2.9-2.2.5-.3.9-.6 1.2-.8.9-.6 1.4-1.5 1.6-2.6.2-1.7-.8-3-1.6-4.1-.3-.4-.6-.8-.9-1.3l.1-.1c.7-.5 1.5-.9 2.3-1.1l.5-.2c.2-.1.3-.1.5-.2 1.4-.3 2.7-1.2 3.6-2.3.8-1.3.9-2.9.3-4.3-1-2.1-2.4-4.2-4-6"/>
        <path d="M71.9 111.6c-2.3 0-4.3 1.7-4.6 4-2.4 1.1-3.4 3.9-2.3 6.2 1 2.2 3.4 3.2 5.7 2.5 2 1.7 4.9 1.4 6.6-.5 1.7-2 1.4-4.9-.5-6.6l-.2-.2c0-.2.1-.5.1-.8-.1-2.5-2.2-4.6-4.8-4.6"/>
        <path d="M87.4 67.6c-.8-.8-2-.8-2.8 0l-8 8-.3.3-.1.1c-.1.1-.1.3-.2.4 0 .1 0 .1-.1.2-.1.3-.1.5 0 .8 0 .1 0 .1.1.2 0 .1.1.3.2.4 0 0 0 .1.1.1l.3.3 8 8c.8.8 2 .8 2.8 0s.8-2 0-2.8L82.8 79H110c1.1 0 2-.9 2-2s-.9-2-2-2H82.8l4.6-4.6c.8-.8.8-2 0-2.8.1 0 0 0 0 0"/>
    </g>
</svg>
