<?xml version="1.0" encoding="UTF-8"?>
<svg data-bbox="19.006 40.866 511.994 468.303" viewBox="0 0 550 550" xmlns="http://www.w3.org/2000/svg" data-type="shape">
    <g>
        <path d="M262.43 460.133a8 8 0 0 1-8-8v-.711c0-25.523 19.975-46.451 45.474-47.645l3.897-.178c8.227-.386 15.915-3.397 21.642-8.481a35.8 35.8 0 0 0 6.075-7c3.717-5.589 5.683-12.328 5.683-19.485V320.77c0-13.608 8.57-25.975 21.326-30.771l2.011-.755.122-.045c6.816-2.434 8.738-6.028 9.591-8.52 3.513-10.27-4.789-26.813-7.974-31.799a8 8 0 0 1-.611-1.154l-10.896-25.41c-5.997-13.98-9.771-28.373-11.216-42.778-1.854-18.573-6.12-35.366-12.678-49.916-.382-.851-.763-1.669-1.151-2.486-22.191-46.538-73.635-62.311-102.324-67.57-45.917-8.431-93.238 3.084-133.248 32.422l-.189.135-.132.099c-37.896 27.925-58.652 74.342-54.238 121.191 1.843 19.57 6.875 39.966 14.957 60.62 9.279 23.73 22.074 47.195 38.03 69.745 12.915 18.24 28.118 46.187 27.197 75.729-.137 4.416-3.844 7.903-8.246 7.747a8 8 0 0 1-7.747-8.245c.824-26.434-14.849-52.689-24.265-65.987-16.707-23.61-30.121-48.225-39.872-73.161-8.624-22.042-14.002-43.894-15.986-64.947-4.938-52.408 18.285-104.336 60.606-135.521.153-.115.323-.241.496-.362C124.35 47.099 176.025 34.6 226.289 43.828c54.719 10.031 95.163 37.174 113.882 76.428.445.935.877 1.863 1.3 2.809 7.264 16.114 11.979 34.584 14.004 54.88 1.282 12.776 4.647 25.584 10.001 38.065l10.652 24.843c2.787 4.521 15.522 26.704 9.261 45.005-2.041 5.967-7.045 13.994-19.285 18.387l-1.948.731c-6.551 2.464-10.954 8.811-10.954 15.794v47.863c0 10.32-2.892 20.123-8.362 28.349a51.8 51.8 0 0 1-8.785 10.112c-8.44 7.493-19.636 11.933-31.513 12.488l-3.897.178c-16.938.793-30.213 14.701-30.213 31.662v.711a8.003 8.003 0 0 1-8.002 8"/>
        <path d="M277.151 509.169q-.828 0-1.671-.177L79.207 467.273a8 8 0 0 1-6.162-9.488l9.336-43.926a7.997 7.997 0 0 1 9.488-6.162l196.274 41.72a7.997 7.997 0 0 1 6.162 9.489l-9.337 43.925a8 8 0 0 1-7.817 6.338M90.358 453.286l180.624 38.393 6.01-28.274-180.624-38.394z"/>
        <path d="M185.454 443.769c-4.418 0-8-3.578-8-7.996 0-1.17.256-2.334.751-3.394 24.361-52.176 75.226-86.623 132.744-89.899a7.98 7.98 0 0 1 8.442 7.532 8 8 0 0 1-7.532 8.442c-51.568 2.937-97.179 33.787-119.077 80.524a8 8 0 0 1-7.328 4.791"/>
        <path d="M146.336 435.453a8 8 0 0 1-7.072-11.73c15.575-29.578 38.667-54.835 66.78-73.04 28.426-18.407 61.341-29.155 95.186-31.081a8 8 0 0 1 8.441 7.533 8 8 0 0 1-7.533 8.441c-62.555 3.56-119.541 40.191-148.717 95.602a8 8 0 0 1-7.085 4.275"/>
        <path d="M129.999 477.889c-4.418 0-8-3.578-8-7.996v-.009a8 8 0 0 1 16 0c0 4.418-3.582 8.005-8 8.005"/>
        <path d="M427.807 414.556a8 8 0 0 1-5.657-13.657c12.998-12.997 20.156-30.254 20.156-48.592s-7.158-35.595-20.156-48.592a8 8 0 0 1 11.314-11.314c16.02 16.021 24.842 37.295 24.842 59.906s-8.822 43.886-24.842 59.906a7.98 7.98 0 0 1-5.657 2.343"/>
        <path d="M409.246 395.995a7.97 7.97 0 0 1-5.653-2.34 8 8 0 0 1-.007-11.313c8.037-8.047 12.464-18.714 12.464-30.035s-4.427-21.988-12.464-30.033a8 8 0 0 1 .006-11.314 8 8 0 0 1 11.314.006c11.055 11.067 17.144 25.75 17.144 41.342s-6.088 30.273-17.144 41.342a7.98 7.98 0 0 1-5.66 2.345"/>
        <path d="M390.694 377.444a8 8 0 0 1-5.664-13.65c3.072-3.079 4.764-7.158 4.764-11.487s-1.691-8.408-4.763-11.486a8 8 0 0 1 .013-11.313 8 8 0 0 1 11.313.013c6.085 6.099 9.437 14.191 9.437 22.787s-3.351 16.688-9.436 22.788a7.98 7.98 0 0 1-5.664 2.348"/>
        <path d="M436.363 246.684h-25.162a8 8 0 0 1-8-8v-15.521H387.68a8 8 0 0 1-8-8V190a8 8 0 0 1 8-8h15.521v-15.521a8 8 0 0 1 8-8h25.162a8 8 0 0 1 8 8V182h15.521a8 8 0 0 1 8 8v25.162a8 8 0 0 1-8 8h-15.521v15.521a8 8 0 0 1-8 8.001m-17.162-16h9.162v-15.521a8 8 0 0 1 8-8h15.521V198h-15.521a8 8 0 0 1-8-8v-15.521h-9.162V190a8 8 0 0 1-8 8H395.68v9.162h15.521a8 8 0 0 1 8 8z"/>
        <path d="M494.38 169.935h-30.616a8 8 0 0 1-8-8v-20.62h-20.62a8 8 0 0 1-8-8v-30.617a8 8 0 0 1 8-8h20.62v-20.62a8 8 0 0 1 8-8h30.616a8 8 0 0 1 8 8v20.62H523a8 8 0 0 1 8 8v30.617a8 8 0 0 1-8 8h-20.62v20.62a8 8 0 0 1-8 8m-22.616-16h14.616v-20.62a8 8 0 0 1 8-8H515v-14.617h-20.62a8 8 0 0 1-8-8v-20.62h-14.616v20.62a8 8 0 0 1-8 8h-20.62v14.617h20.62a8 8 0 0 1 8 8z"/>
    </g>
</svg>
